# xmcd
#
# Track frame offsets:
#	150
#	11667
#	26120
#	37182
#	54907
#	65513
#	85775
#	104074
#	122270
#
# Disc length: 1856 seconds
#
# Revision: 0
# Processed by: cddbd v1.5.2PL0 Copyright (c) Steve Scherf et al.
# Submitted via: audiograbber 1.83.01
#
DISCID=72073e09
DTITLE=Various Artist - Texas Country Artist Compilation 6
DYEAR=1900
DGENRE=Country
TTITLE0=Rick Stancil - Boys you gotta learn to dance
TTITLE1=Luann - How many breaks (can a broken heart stand)
TTITLE2=Joe French - Deep water
TTITLE3=Liz Talley - Stitch in time
TTITLE4=Randy Meadows - Jessie
TTITLE5=Scout Finch - Soulmate
TTITLE6=Badlands - If I was an angel
TTITLE7=Kim Carson - A couple of beers behind
TTITLE8=Chet Daniels - A devil in lace
EXTD=
EXTT0=
EXTT1=
EXTT2=
EXTT3=
EXTT4=
EXTT5=
EXTT6=
EXTT7=
EXTT8=
PLAYORDER=
